<svg xmlns="http://www.w3.org/2000/svg" xmlns:xlink="http://www.w3.org/1999/xlink" fill="none" version="1.1" width="36" height="36" viewBox="0 0 36 36"><g><g><rect x="0" y="0" width="36" height="36" rx="0" fill="#D8D8D8" fill-opacity="0"/></g><g><path d="M22.5895,7L10.320129999999999,7C9.03962,7,8,8.0247,8,9.28682L8,22.6672C8,25.6101,10.42789,28,13.41046,28L25.6799,28C26.9604,28,28,26.9753,28,25.7132L28,12.33279C28.0032,9.39304,25.5753,7.000000476695,22.5895,7ZM18.5674,21.333199999999998L13.57528,21.333199999999998C13.01109,21.333199999999998,12.55467,20.8834,12.55467,20.3273C12.55467,19.7712,13.01109,19.318199999999997,13.57528,19.318199999999997L18.5674,19.318199999999997C19.131500000000003,19.318199999999997,19.588,19.7681,19.588,20.3273C19.5911,20.880200000000002,19.131500000000003,21.333199999999998,18.5674,21.333199999999998ZM22.4247,15.55058L13.57528,15.55058C13.01109,15.55058,12.55467,15.10071,12.55467,14.54463C12.55467,13.98854,13.01109,13.53868,13.57528,13.53868L22.4247,13.53868C22.9889,13.53868,23.4453,13.98854,23.4453,14.54463C23.4453,15.10071,22.9889,15.55058,22.4247,15.55058Z" fill="#AAAAAA" fill-opacity="1"/></g></g></svg>