<svg xmlns="http://www.w3.org/2000/svg" xmlns:xlink="http://www.w3.org/1999/xlink" fill="none" version="1.1" width="40" height="40" viewBox="0 0 40 40"><g><g><rect x="0" y="0" width="40" height="40" rx="0" fill="#999999" fill-opacity="0"/></g><g><path d="M27.472832289123534,25.770673297119142L31.633032289123534,29.93517329711914C32.112732289123535,30.403373297119142,32.123432289123535,31.171673297119142,31.657032289123535,31.65317329711914C31.176632289123535,32.12417329711914,30.404932289123536,32.11417329711914,29.936932289123536,31.63067329711914L25.778332289123536,27.46947329711914C23.841332289123535,29.03457329711914,21.426132289123537,29.88697329711914,18.936432289123537,29.88387329711914C12.895962289123535,29.88387329711914,7.999342680123535,24.98487329711914,7.999932289123535,18.94197329711914C7.999932289123535,12.89844329711914,12.895832289123536,7.999383449119141,18.934832289123534,7.999973297119141C24.974432289123534,7.999973297119141,29.870332289123535,12.89975329711914,29.869732289123537,18.94357329711914C29.872232289123534,21.426173297119142,29.026532289123534,23.83507329711914,27.472832289123534,25.770673297119142ZM18.936432289123537,10.403483297119141C14.222532289123535,10.403483297119141,10.401612289123534,14.228193297119141,10.403242289123535,18.94517329711914L10.401642289123535,18.94517329711914C10.401642289123535,23.66137329711914,14.222442289123535,27.48467329711914,18.935632289123536,27.48467329711914C23.648832289123533,27.48467329711914,27.469632289123535,23.66137329711914,27.469632289123535,18.94517329711914C27.471232289123535,14.228193297119141,23.650332289123533,10.403493297119141,18.936432289123537,10.403483297119141ZM19.989332289123535,17.891553297119138L22.890232289123535,17.891553297119138C23.480032289123535,17.88443329711914,23.964032289123537,18.35657329711914,23.971932289123536,18.94667329711914C23.962232289123534,19.53637329711914,23.478032289123533,20.00737329711914,22.888632289123535,20.00017329711914L19.989332289123535,20.00017329711914L19.989332289123535,22.901373297119143C19.989332289123535,23.49867329711914,19.517332289123537,23.986973297119143,18.936532289123534,23.986973297119143C18.355632289123534,23.986973297119143,17.883642289123536,23.49867329711914,17.883642289123536,22.901373297119143L17.883642289123536,20.00017329711914L14.984302289123535,20.00017329711914C14.387482289123536,20.00017329711914,13.901052289123534,19.531073297119143,13.901052289123534,18.94827329711914C13.909832289123536,18.35797329711914,14.394332289123536,17.886023297119138,14.984302289123535,17.89315329711914L17.883642289123536,17.89315329711914L17.883642289123536,14.99194329711914C17.883642289123536,14.39473329711914,18.355632289123534,13.907993297119141,18.936532289123534,13.907993297119141C19.517332289123537,13.907993297119141,19.989332289123535,14.39473329711914,19.989332289123535,14.99194329711914L19.989332289123535,17.891553297119138Z" fill-rule="evenodd" fill="#666666" fill-opacity="1"/></g></g></svg>