<svg xmlns="http://www.w3.org/2000/svg" xmlns:xlink="http://www.w3.org/1999/xlink" fill="none" version="1.1" width="40" height="40" viewBox="0 0 40 40"><g><g><rect x="0" y="0" width="40" height="40" rx="0" fill="#999999" fill-opacity="0"/></g><g><path d="M27.3406,8L12.35371,8Q10.96456,8,9.982279,8.982279Q9,9.96456,9,11.35371L9,28.6463Q9,30.0354,9.982279,31.0177Q10.96455,32,12.35371,32L27.3406,32Q28.7298,32,29.712,31.0177Q30.6943,30.0354,30.6943,28.6463L30.6943,11.35371Q30.6943,9.96457,29.712,8.98228Q28.7298,8,27.3406,8ZM13.61135,10.096070000000001L12.35371,10.096070000000001Q11.83278,10.096070000000001,11.46442,10.46442Q11.096070000000001,10.83278,11.096070000000001,11.35371L11.096070000000001,28.6463Q11.096070000000001,29.1672,11.46442,29.5356Q11.83278,29.9039,12.35371,29.9039L13.61135,29.9039L13.61135,10.096070000000001ZM15.707419999999999,29.9039L27.3406,29.9039Q27.8615,29.9039,28.2299,29.5356Q28.5983,29.1672,28.5983,28.6463L28.5983,11.35371Q28.5983,10.83278,28.2299,10.46442Q27.8615,10.096070000000001,27.3406,10.096070000000001L15.707419999999999,10.096070000000001L15.707419999999999,29.9039ZM21.9852,15.6821L20.476,14.55022Q20.128700000000002,14.28975,19.698900000000002,14.351140000000001Q19.269199999999998,14.41254,19.008699999999997,14.759820000000001Q18.748269999999998,15.107109999999999,18.80966,15.53686Q18.87105,15.96661,19.2183,16.227069999999998L21.5241,17.956409999999998Q21.8589,18.2073,22.2745,18.1587Q22.689999999999998,18.1101,22.9578,17.78873L25.8436,14.32587L25.8471,14.32143Q26.1123,13.98712,26.0686,13.56261Q26.0249,13.1381,25.697,12.864899999999999Q25.3692,12.5917,24.9437,12.62523Q24.5183,12.658760000000001,24.237299999999998,12.97996L24.2336,12.984210000000001L21.9852,15.6821ZM24.4587,20.680999999999997Q24.0246,20.6807,23.717,20.9876L22.1527,22.552799999999998L20.587600000000002,20.9877Q20.280099999999997,20.6806,19.8458,20.6809Q19.4116,20.6812,19.104799999999997,20.988500000000002Q18.797919999999998,21.2958,18.79823,21.73Q18.79853,22.1642,19.1057,22.471L20.6706,24.0349L19.1057,25.5989Q18.79853,25.9056,18.79823,26.3399Q18.797919999999998,26.7741,19.104799999999997,27.0814Q19.4116,27.3887,19.8458,27.389Q20.280099999999997,27.3893,20.5875,27.0823L22.1527,25.5171L23.7168,27.0821Q24.023899999999998,27.3895,24.4585,27.3895Q24.8932,27.3894,25.2002,27.0819Q25.5073,26.7743,25.5068,26.3397Q25.5062,25.9051,25.1987,25.5987L23.634900000000002,24.0349L25.1989,22.4709Q25.5059,22.164099999999998,25.5062,21.73Q25.5064,21.2958,25.1996,20.988599999999998Q24.892899999999997,20.6814,24.4587,20.680999999999997Z" fill-rule="evenodd" fill="#666666" fill-opacity="1"/></g></g></svg>