<svg xmlns="http://www.w3.org/2000/svg" xmlns:xlink="http://www.w3.org/1999/xlink" fill="none" version="1.1" width="40" height="40" viewBox="0 0 40 40"><g><g><rect x="0" y="0" width="40" height="40" rx="0" fill="#999999" fill-opacity="0"/></g><g><path d="M16.247363405761718,20.6826C17.422933405761718,20.2242,18.78841340576172,20.2798,19.967253405761717,20.960900000000002C21.054403405761718,21.5897,21.761713405761718,22.6244,22.01385340576172,23.7607L27.397253405761717,9.82748C27.610053405761718,9.22169,27.33825340576172,8.534031,26.752153405761717,8.196753C26.136553405761717,7.839826,25.36375340576172,7.9806318,24.96095340576172,8.520932L16.247363405761718,20.6826ZM13.607981405761718,31.9801C13.352566405761719,32.4189,12.393123405761719,25.4736,13.58178540576172,23.413899999999998C14.770443405761718,21.3542,17.40318340576172,20.650199999999998,19.46287340576172,21.842100000000002C21.52256340576172,23.0275,22.22659340576172,25.6602,21.03793340576172,27.7199C18.830883405761718,31.0894,15.667673405761718,28.4109,13.607981405761718,31.9801Z" fill-rule="evenodd" fill="#666666" fill-opacity="1"/></g></g></svg>