<svg xmlns="http://www.w3.org/2000/svg" xmlns:xlink="http://www.w3.org/1999/xlink" fill="none" version="1.1" width="40" height="40" viewBox="0 0 40 40"><g><g><rect x="0" y="0" width="40" height="40" rx="0" fill="#999999" fill-opacity="0"/></g><g><path d="M13.19266,19.0392L29.6002,23.428800000000003L29.5666,23.463900000000002L29.5422,23.771C29.4811,24.5838,29.3894,25.2744,29.1144,27.1017L28.9585,28.1437C28.8669,28.7655,28.8027,29.2651,28.7492,29.7266C28.6484,30.599,28.1885,31.285,27.4444,31.6746C27.0762,31.8686,26.6805,31.9771,26.3505,31.9954L26.2543,32L24.095399999999998,31.4194C23.818199999999997,31.3475,23.677500000000002,31.0387,23.8051,30.7823L24.65,29.0742L24.1642,29.7006C23.814799999999998,30.1278,23.4371,30.5311,23.0335,30.9076C22.9189,31.018,22.7549,31.0603,22.6012,31.0191L20.799799999999998,30.5378C20.523600000000002,30.4657,20.383200000000002,30.1582,20.5095,29.9023L21.356,28.1941L20.8701,28.8205C20.521,29.248,20.1433,29.6513,19.7395,30.0275C19.6251,30.1382,19.4608,30.1806,19.3071,30.1391L17.19563,29.5738C16.92185,29.4997,16.783,29.1949,16.90686,28.9397L17.75176,27.2316L17.265909999999998,27.858C16.91651,28.2852,16.53879,28.6885,16.1353,29.065C16.02085,29.1757,15.85663,29.2181,15.702919999999999,29.1765L14.21021,28.7778C13.93448,28.7041,13.7951,28.3966,13.92144,28.1406L14.76634,26.434L14.28049,27.0605C14.08187,27.3156,13.79158,27.6334,13.40961,28.0138C13.1399,28.2825,12.74758,28.3873,12.37984,28.2889L10.51586,27.7908L9.964309,27.583C9.256914,26.9734,8.899397,26.1162,9.0246812,25.3019C9.162188,24.4157,9.796246,23.686999999999998,10.98491,23.1843C11.80537,22.834400000000002,12.598320000000001,21.4135,13.12543,19.425800000000002L13.2171,19.0805L13.19266,19.0377L13.19266,19.0392ZM12.169,17.2211C12.205729999999999,17.1675,12.24606,17.11646,12.2897,17.06832L15.24456,13.83538C15.48138,13.578700000000001,15.83737,13.37245,16.243769999999998,13.26397C16.64101,13.15855,17.055059999999997,13.152429999999999,17.40494,13.24563L20.3552,14.033999999999999L20.453,13.97747L21.7746,9.06391C21.9824,8.289285,22.824199999999998,7.835514,23.6538,8.0555241L25.6401,8.587216C26.4697,8.808754,26.9723,9.6231,26.7646,10.39772L25.443,15.31129L25.4995,15.40907L28.3291,16.16536C28.6774,16.25703,29.0349,16.47093,29.3252,16.76122C29.6216,17.056089999999998,29.8294,17.41055,29.9028,17.751260000000002L30.8424,22.0262C30.8592,22.1036,30.8694,22.182299999999998,30.8729,22.261499999999998C30.8561,22.418799999999997,30.7461,22.5075,30.546,22.5289L12.37678,17.66723C12.12774,17.59695,12.057459999999999,17.44722,12.16747,17.219569999999997L12.169,17.2211Z" fill="#666666" fill-opacity="1"/></g></g></svg>